<svg viewBox="0 0 120 120" xmlns="http://www.w3.org/2000/svg">
  <defs>
    <linearGradient id="a4bg" x1="0" y1="0" x2="120" y2="120" gradientUnits="userSpaceOnUse">
      <stop offset="0" stop-color="#F472B6"/>
      <stop offset="1" stop-color="#BE185D"/>
    </linearGradient>
  </defs>
  <rect width="120" height="120" fill="url(#a4bg)"/>
  <path d="M14 120 Q60 82 106 120 Z" fill="#9D174D"/>
  <circle cx="60" cy="60" r="30" fill="#F1C7A0"/>
  <path d="M30 62 a30 30 0 0 1 60 0 q4 -22 -12 -30 q-4 8 -18 8 q-14 0 -18 -8 q-16 8 -12 30 Z" fill="#4B2E2E"/>
  <circle cx="49" cy="61" r="9" fill="none" stroke="#1F2937" stroke-width="3"/>
  <circle cx="71" cy="61" r="9" fill="none" stroke="#1F2937" stroke-width="3"/>
  <path d="M58 61 h4" stroke="#1F2937" stroke-width="3"/>
  <circle cx="49" cy="61" r="3" fill="#1F2937"/>
  <circle cx="71" cy="61" r="3" fill="#1F2937"/>
  <path d="M52 74 q8 5 16 0" fill="none" stroke="#1F2937" stroke-width="3" stroke-linecap="round"/>
</svg>
