<svg viewBox="0 0 120 120" xmlns="http://www.w3.org/2000/svg">
  <defs>
    <linearGradient id="a8bg" x1="0" y1="0" x2="120" y2="120" gradientUnits="userSpaceOnUse">
      <stop offset="0" stop-color="#A78BFA"/>
      <stop offset="1" stop-color="#DB2777"/>
    </linearGradient>
  </defs>
  <rect width="120" height="120" fill="url(#a8bg)"/>
  <path d="M14 120 Q60 82 106 120 Z" fill="#831843"/>
  <circle cx="60" cy="63" r="30" fill="#EBB58C"/>
  <circle cx="38" cy="40" r="11" fill="#3F2A56"/>
  <circle cx="55" cy="31" r="12" fill="#3F2A56"/>
  <circle cx="74" cy="34" r="11" fill="#3F2A56"/>
  <circle cx="85" cy="47" r="10" fill="#3F2A56"/>
  <circle cx="34" cy="55" r="9" fill="#3F2A56"/>
  <path d="M32 58 q-2 -22 28 -24 q30 2 28 24 q-8 -14 -28 -14 q-20 0 -28 14 Z" fill="#3F2A56"/>
  <circle cx="50" cy="63" r="3.4" fill="#2E2536"/>
  <circle cx="70" cy="63" r="3.4" fill="#2E2536"/>
  <path d="M52 74 q8 6 16 0" fill="none" stroke="#2E2536" stroke-width="3" stroke-linecap="round"/>
</svg>
